<svg width="64" height="64" xmlns="http://www.w3.org/2000/svg" xmlns:xlink="http://www.w3.org/1999/xlink">
  <defs/>
  <g>
    <path stroke="none" fill="#FFFFFF" d="M2 2 L62 2 62 8.5 58.75 8.5 58.75 32.9 54.95 35.3 54.95 55.25 58.75 57.7 58.75 62 40.2 62 40.2 57.7 44 55.25 44 35.3 40.2 32.9 40.2 28.65 Q38.85 25.9 37.15 23.8 34.85 20.9 31.5 20.9 28.2 20.9 25.8 23.8 24.1 25.9 23.7 28.65 L23.7 32.9 19.9 35.3 19.9 55.25 23.7 57.7 23.7 62 5.15 62 5.15 57.7 8.95 55.25 8.95 35.3 5.15 32.9 5.15 8.5 2 8.5 2 2"/>
    <path fill="none" stroke="#B2B7BB" stroke-width="2" stroke-linecap="round" stroke-linejoin="round" d="M40.2 28.65 L44.3 28.3 48.35 28.7 52.3 28.65 55.6 28.55 58.75 28.65 M5.15 8.5 L8.9 8.5 12.45 8.9 Q14.8 9.3 17.05 8.9 L21.25 8.4 25.25 8.25 Q27.3 8.2 29.2 8.8 L33.1 9.45 Q35.05 9.5 37.15 8.75 L41.2 8.5 45.1 8.25 49.1 8.1 53 8.95 Q54.85 9.2 56.45 8.9 L58.75 8.5 M44 35.3 L47.95 35.2 51.2 35.15 54.95 35.3 M44 55.25 L48.65 54.9 51.45 55 54.95 55.25 M23.7 28.65 L20.3 28.8 16.2 29 11.7 28.55 Q9.35 28.4 8.45 28.95 7.55 29.55 5.15 28.65 M8.95 35.3 L12.8 34.8 15.75 34.65 19.9 35.3 M8.95 55.25 L13.05 55.1 16.15 55.1 19.9 55.25"/>
    <path fill="none" stroke="#2A2A2A" stroke-width="2" stroke-linecap="round" stroke-linejoin="round" d="M62.45 5.05 L62 8.5 Q58.25 8.3 58.75 8.5 58.25 10.3 58.6 12.4 59 14.5 59.05 16.55 L58.85 20.55 58.7 24.3 58.65 28.35 Q58.55 30.55 58.7 31.8 L58.75 32.9 Q57.3 34.65 56.45 34.95 L54.95 35.3 55.1 39.35 55.4 43.55 Q55.6 45.8 55.4 47.55 L55.15 50.4 54.95 55.25 Q55.95 54.75 56.1 55.75 56.25 56.8 58.75 57.7 L58.75 59.1 58.75 62 54.75 62.1 Q52.75 62.65 50.8 62.05 L46.8 61.8 43.75 62.55 Q42.85 62.95 40.2 62 L40.25 59.1 40.2 57.7 Q41.75 56.35 42.8 55.85 L44 55.25 43.8 50.05 44.15 47.25 44.2 43.15 43.95 39.2 Q43.85 37.2 44 35.3 42.95 35.05 42.8 34.55 42.7 34.05 40.2 32.9 L40.3 31.3 40.2 28.65 Q39.3 28.25 39.15 27.4 39.05 26.6 37.8 25.55 L34.95 22.9 Q33.3 21.3 31.75 21.35 30.25 21.45 28.65 22.7 27.1 24 26.05 25.2 25 26.4 23.7 28.65 24.35 30.3 24.3 31.8 24.3 33.3 23.7 32.9 L21.3 35.1 Q20.05 36 19.9 35.3 19.65 36.4 20.05 38.95 L20.5 43.5 20.7 47.35 Q20.85 49.25 20.5 50.2 20.2 51.15 19.9 55.25 19.9 55.5 21 55.95 22.15 56.4 23.7 57.7 24.1 57.45 24.35 58.7 24.65 60 23.7 62 21.15 61.25 20.4 62 19.7 62.8 17.3 62.25 L13.05 62.15 Q11.15 62.65 9.25 62.15 L5.15 62 5.25 59.15 5.15 57.7 Q5.9 57.5 7.2 56.3 8.55 55.15 8.95 55.25 8.2 51.4 8.55 50.3 8.9 49.25 8.9 47.1 L8.75 42.65 Q8.6 40.3 8.8 38.8 L8.95 35.3 Q8.7 35.25 7.6 34.3 6.55 33.4 5.15 32.9 L5.2 31.8 5.25 28.25 5.25 24.4 5.05 20.9 4.45 16.9 Q4.15 14.5 4.9 12.5 5.7 10.5 5.15 8.5 L2 8.5 1.5 5.5 Q1.25 4.55 2 2 L6.35 2.35 10.35 2.15 14 1.9 18.25 2 22.05 1.95 25.5 2.05 29.8 1.85 34.25 1.95 38.15 2.45 42 2.3 45.7 2 49.6 1.65 53.9 1.55 57.2 2.15 62 2 Q62.55 3.65 62.45 5.05"/>
  </g>
</svg>