<svg width="64" height="64" xmlns="http://www.w3.org/2000/svg" xmlns:xlink="http://www.w3.org/1999/xlink">
  <defs/>
  <g>
    <path stroke="none" fill="#FFFFFF" d="M2 62 Q2 58.25 2.9 54.8 3.55 52.15 4.8 49.65 L5.05 49.15 Q7.15 46.2 10.75 43.65 16.1 39.95 22.7 38.45 23.75 32.65 29.4 26.85 L29.4 20.65 24.5 19.5 24.5 17 27.75 13.8 32 2 36.25 13.8 39.5 17 39.5 19.5 34.6 20.65 34.6 26.85 Q40.25 32.65 41.3 38.45 47.9 39.95 53.25 43.65 56.85 46.2 59 49.15 L59.25 49.65 Q60.4 52.05 61.05 54.6 L61.1 54.8 Q62 58.25 62 62 L2 62"/>
    <path fill="none" stroke="#B2B7BB" stroke-width="2" stroke-linecap="round" stroke-linejoin="round" d="M34.6 26.85 Q34.7 27.65 32 24.4 L29.4 26.85 M61.1 54.8 Q59.4 53.85 56.9 54 L53.15 54.45 49.2 54.85 45.25 55.2 41.55 54.75 Q39.1 54 37.25 54.15 L33 54.8 28.85 55.1 25.15 54.5 Q23.25 54.1 21.2 54.9 19.2 55.7 17.15 55.5 L13.3 55.05 9.5 54.75 6.7 54.65 2.9 54.8"/>
    <path fill="none" stroke="#2A2A2A" stroke-width="2" stroke-linecap="round" stroke-linejoin="round" d="M34.6 26.85 L34.6 23.75 34.6 20.65 Q36.95 20.15 37.55 19.6 L39.5 19.5 Q39.2 19.3 39.5 17 L37.35 14.3 Q36.3 13.35 36.25 13.8 35.9 12.3 34.95 10.2 34.05 8.1 33.5 6.3 L32.6 3 Q32.3 1.5 32 2 31.4 1.95 30.9 2.95 30.4 3.95 29.85 5.75 L28.8 9.7 27.75 13.8 Q27.25 13.7 26.5 15.1 25.8 16.55 24.5 17 24.9 19.3 24.5 19.5 L26.95 19.85 Q27.45 20.15 29.4 20.65 28.8 22.85 29.5 23.5 30.25 24.2 29.4 26.85 28.7 28.3 27.65 28.65 26.65 29.05 25.9 31.15 L24.25 34.95 22.7 38.45 Q20.55 38.95 19.7 39.35 L16.45 40.2 Q14.1 40.7 12.55 41.85 L9.7 43.9 Q8.4 44.8 7 47.15 5.65 49.5 5.2 50.8 L3.75 53.75 Q2.8 55.4 2.9 57.65 3 59.95 2 62 L6.5 61.6 Q8.15 61.3 10.55 61.6 L14.5 62.35 Q16.05 62.8 18.15 61.9 20.25 61.05 21.9 61.4 L25.3 61.6 29.65 61.75 34.15 61.95 38.45 61.95 42.4 62.05 45.75 62.45 Q47.55 62.9 49.8 62.45 L53.55 62.2 56.55 62.15 62 62 Q61.55 59.7 61.7 57.5 61.9 55.35 61.05 53.8 L59.5 50.55 57.65 47.25 Q56.55 45.7 54.5 44.45 L50.75 42.1 Q49.1 41.05 47.2 40.4 L44 39.6 Q42.7 39.4 41.3 38.45 40.7 36.45 39.45 34.85 38.2 33.3 37.95 31.25 37.7 29.25 36.7 28.65 L34.6 26.85"/>
  </g>
</svg>