<svg width="64" height="64" xmlns="http://www.w3.org/2000/svg" xmlns:xlink="http://www.w3.org/1999/xlink">
  <defs/>
  <g>
    <path stroke="none" fill="#FFFFFF" d="M4.35 31.85 Q8.3 20.85 17.6 16.2 29.15 10.45 32 2 34.8 10.45 46.4 16.2 55.65 20.85 59.6 31.85 62.7 43.15 57.55 48.35 L62 51.9 62 62 2 62 2 51.9 6.4 48.35 Q1.3 43.15 4.35 31.85"/>
    <path fill="none" stroke="#B2B7BB" stroke-width="2" stroke-linecap="round" stroke-linejoin="round" d="M6.4 48.35 Q8.2 47.75 10.7 48.3 L14.5 48.65 17.65 48.8 Q19.55 49.25 21.5 48.75 L25.45 48.15 30 48.15 34.8 48.3 38.75 48.75 42.6 49.15 46.9 48.45 50.75 48.15 53.4 48.3 57.55 48.35 M2 55.8 L6 55.95 9.8 55.85 13.9 55.65 17.55 55.3 21.6 55.4 25.75 55.55 29.7 55.5 34.15 55.95 38.4 56.25 42.65 55.9 46.8 55.7 50.3 55.7 53.6 55.7 56.55 55.6 62 55.8"/>
    <path fill="none" stroke="#2A2A2A" stroke-width="2" stroke-linecap="round" stroke-linejoin="round" d="M59.6 31.85 Q59.45 29.9 58.3 28.55 L55.95 25.15 Q54.75 23.15 53.25 21.6 L50.45 19.25 47.35 17.45 Q45.6 16.45 43.9 15 L40.95 12.65 Q39.65 11.8 38.3 10.15 L35.35 7.1 33.15 4.75 Q32.55 3.9 32 2 L30.75 3.7 29.45 6.6 Q28.6 8.75 27.2 9.8 L24 12.25 20.7 14.7 17.3 16.75 Q15.35 17.75 13.75 18.95 L10.45 21.35 Q8.75 22.55 7.65 24.05 6.55 25.6 6 27.65 5.5 29.7 4.35 31.85 3.15 33.05 3 34.5 L2.75 37.55 Q2.7 39.15 3.6 41.35 L4.8 44.8 Q5.1 46.05 6.4 48.35 4.65 49 4.35 50.2 4.1 51.4 2 51.9 L1.45 55.7 Q1.15 58.35 1.95 59.5 2.75 60.65 2 62 L6.5 61.6 Q8.15 61.3 10.55 61.6 L14.5 62.35 Q16.05 62.8 18.15 61.9 20.25 61.05 21.9 61.4 L25.3 61.6 29.65 61.75 34.15 61.95 38.45 61.95 42.4 62.05 45.75 62.45 Q47.55 62.9 49.8 62.45 L53.55 62.2 56.55 62.15 62 62 Q61.95 59.55 62.2 58.9 62.45 58.25 62.35 56.1 L62 51.9 Q61.2 50.8 60.2 50.2 L57.55 48.35 59.75 44.8 Q60.7 43 60.9 41.2 L61.15 37.35 Q61.15 35.25 60.05 34.65 58.95 34.1 59.6 31.85"/>
  </g>
</svg>